<svg width="24" height="26" viewBox="0 0 24 26" fill="none" xmlns="http://www.w3.org/2000/svg">
<path d="M0.909851 9.125C0.909851 5.00021 0.909851 2.93782 2.15465 1.65641C3.39944 0.375 5.40291 0.375 9.40985 0.375H15.0765C19.0835 0.375 21.0869 0.375 22.3317 1.65641C23.5765 2.93782 23.5765 5.00021 23.5765 9.125V19.0819C23.5765 22.9951 23.5765 24.9516 22.3804 25.5501C21.1844 26.1485 19.6898 24.9397 16.7008 22.5221L15.7442 21.7483C14.0635 20.389 13.2231 19.7093 12.2432 19.7093C11.2632 19.7093 10.4229 20.389 8.7422 21.7483L7.78559 22.5221C4.79654 24.9397 3.30202 26.1485 2.10593 25.5501C0.909851 24.9516 0.909851 22.9951 0.909851 19.0819V9.125Z" fill="white"/>
</svg>
