<svg width="24" height="30" viewBox="0 0 24 30" fill="none" xmlns="http://www.w3.org/2000/svg">
<path fill-rule="evenodd" clip-rule="evenodd" d="M9.19294 0.852978C2.90325 3.8415 4.05545 13.5228 10.8442 14.7222C17.0958 15.827 21.3728 7.50145 17.0437 2.65419C14.9387 0.296984 11.8531 -0.410784 9.19294 0.852978ZM14.8052 3.12692C16.2085 4.16548 17.0408 6.13701 16.8603 7.99537C16.2411 14.3713 7.62712 14.3437 6.93957 7.9632C6.45936 3.50578 11.2976 0.530888 14.8052 3.12692ZM8.40876 17.3228C3.83471 18.887 0.392229 23.3611 0.220341 27.9658L0.149414 29.8582H11.9102H23.671L23.5961 27.9154C23.3153 20.6534 15.2065 14.9977 8.40876 17.3228ZM16.4839 19.9483C19.1918 21.3835 21.65 24.8679 21.6728 27.3034C21.6808 28.155 21.6808 28.155 11.9102 28.155C0.843121 28.155 1.33707 28.3299 2.81532 24.9379C5.21742 19.4264 11.3059 17.2039 16.4839 19.9483Z" fill="black"/>
</svg>
