<svg width="33" height="36" viewBox="0 0 33 36" fill="none" xmlns="http://www.w3.org/2000/svg">
<path d="M0.933105 12.791C0.933105 7.01631 0.933105 4.12896 2.67582 2.33499C4.41853 0.541016 7.22339 0.541016 12.8331 0.541016H20.7664C26.3762 0.541016 29.181 0.541016 30.9237 2.33499C32.6664 4.12896 32.6664 7.01631 32.6664 12.791V26.7307C32.6664 32.2091 32.6664 34.9483 30.9919 35.7861C29.3174 36.6239 27.2251 34.9316 23.0404 31.5469L21.7012 30.4637C19.3482 28.5606 18.1717 27.609 16.7998 27.609C15.4278 27.609 14.2514 28.5606 11.8984 30.4637L10.5591 31.5469C6.37447 34.9316 4.28214 36.6239 2.60762 35.7861C0.933105 34.9483 0.933105 32.2091 0.933105 26.7307V12.791Z" fill="white"/>
</svg>
