<svg width="288" height="178" viewBox="0 0 288 178" fill="none" xmlns="http://www.w3.org/2000/svg">
<path d="M0.0371094 28.6783C0.0371094 12.9431 12.793 0.187256 28.5282 0.187256H259.264C274.999 0.187256 287.755 12.9431 287.755 28.6783V148.729C287.755 164.464 274.999 177.22 259.264 177.22H28.5282C12.793 177.22 0.0371094 164.464 0.0371094 148.729V28.6783Z" fill="#1B46F5"/>
<path fill-rule="evenodd" clip-rule="evenodd" d="M0.621917 22.912C0.239145 24.7743 0.0380859 26.7028 0.0380859 28.6783V106.395C12.2653 104.021 25.4682 102.241 38.4971 101.211L47.8328 100.472L53.2261 93.8542C62.3766 82.6271 73.7894 70.0997 83.1853 60.9686C85.5081 58.7111 87.2977 56.6527 87.1612 56.3941C86.0278 54.2465 65.2193 36.0952 61.3323 33.864C60.6048 33.4465 58.7045 34.0859 54.8673 36.0393C48.7947 39.1313 45.6381 39.5572 40.3417 38.0006C32.9744 35.8351 27.6078 29.3476 26.6329 21.4279C26.3086 18.7965 25.7896 17.2646 25.1302 16.9918C23.4951 16.3153 16.1766 16.4138 12.2928 17.1649C7.99188 17.9968 4.06219 19.9547 0.621917 22.912ZM273.573 173.372C282.054 168.437 287.756 159.249 287.756 148.729V28.6783C287.756 12.9431 275 0.187256 259.265 0.187256H28.5292C19.6307 0.187256 11.685 4.26665 6.46032 10.6573C12.1041 8.78438 18.5225 8.18286 25.262 8.97529L29.0618 9.42119L32.1919 6.12505C37.4645 0.573501 44.6935 -1.03204 52.2588 1.66795C60.6994 4.68109 65.7407 12.7832 64.7655 21.77C64.6054 23.2475 64.3947 24.1193 64.5533 24.9176C64.8868 26.5965 66.8535 27.9508 74.3583 33.931C77.4546 36.3981 82.966 41.226 86.6061 44.6594C90.2466 48.0935 93.367 50.9469 93.5404 51.0005C93.7138 51.0541 96.3088 49.0703 99.3068 46.5925C114.855 33.7413 132.81 22.8789 146.278 18.1751C167.189 10.8717 185.561 14.0446 196.086 26.7765C200.623 32.2651 205.399 43.3358 206.764 51.5318C209.325 66.9054 207.86 88.828 202.943 108.689C202.17 111.812 201.315 115.3 201.042 116.44L200.546 118.513L209.844 122.265L219.142 126.018L221.483 124.206C222.771 123.208 225.46 121.578 227.459 120.582C241.187 113.741 257.533 126.87 254.048 141.937L253.189 145.649L256.127 148.173C263.946 154.891 270.816 164.944 273.573 173.372ZM0.0380859 147.347V114.422C1.07377 114.223 2.16091 114.015 3.26581 113.804C13.2376 111.894 22.4126 110.623 34.6007 109.462L41.4999 108.805L35.0402 118.106C31.4875 123.221 27.5681 129.003 26.3304 130.954C20.3329 140.405 13.9738 151.043 10.6385 157.205C8.61006 160.953 6.70624 163.943 6.4077 163.851C5.71972 163.638 2.99954 156.352 0.0380859 147.347ZM165.845 177.22H28.5292C22.243 177.22 16.4323 175.185 11.7205 171.736L14.6559 166.289C23.5194 149.839 34.4233 132.591 46.4838 115.945L52.1849 108.076L63.5205 107.824C69.7552 107.686 79.4383 107.688 85.0395 107.829C98.0742 108.158 104.237 108.539 118.831 109.917L130.675 111.037L136.227 120.226C143.358 132.03 157.189 158.237 162.911 170.785L165.845 177.22ZM266.261 176.355C264.023 176.92 261.679 177.22 259.265 177.22H177.742C182.981 166.6 191.746 145.543 195.298 134.801C196.79 130.29 198.16 126.531 198.343 126.448C198.526 126.365 201.82 127.504 205.665 128.977C212.653 131.658 214.935 132.419 215.681 133.935C216.104 134.796 216.033 135.9 216.047 137.735C216.09 143.462 219.729 150.753 223.987 153.641C230.338 157.948 238.261 158.313 244.662 154.594C246.557 153.493 247.578 152.86 248.56 152.916C249.825 152.989 251.024 154.203 253.944 157.029C260.475 163.35 264.58 169.84 266.261 176.355ZM51.0628 29.4258C60.5248 24.432 58.2347 10.2786 47.6785 8.51069C42.1877 7.59015 37.0222 10.5481 35.2616 15.6206C31.8136 25.5555 41.8245 34.3016 51.0628 29.4258ZM196.329 42.8387C190.111 25.667 175.856 19.0232 155.24 23.6884C147.592 25.4196 126.621 35.8672 117.419 42.532C111.692 46.6801 99.414 56.4692 99.2137 57.0474C99.16 57.2035 100.893 59.3118 103.066 61.732C111.35 70.9622 121.387 83.8132 130.332 96.6451C133.101 100.617 135.449 103.875 135.55 103.885C145.329 104.864 171.691 110.217 184.448 113.814C189.146 115.139 193.008 116.069 193.03 115.881C193.05 115.693 193.952 111.919 195.033 107.493C201.468 81.1441 201.926 58.296 196.329 42.8387ZM124.011 101.922C124.372 100.753 106.62 77.6207 97.3128 67.1314C95.3942 64.9694 93.543 63.0977 93.1991 62.9725C91.8729 62.4892 65.7686 90.1492 60.4086 97.7176L58.8036 99.9837L73.0775 99.8497C87.8793 99.7117 98.5928 100.156 114.536 101.568C119.667 102.023 123.931 102.182 124.011 101.922ZM190.424 123.943C189.991 123.121 167.315 117.473 154.799 115.069C145.564 113.294 142.143 112.536 141.675 113.391C141.367 113.956 142.347 115.224 143.792 117.369C147.683 123.147 166.964 159.678 169.538 166.151C171.406 170.849 171.571 171.068 172.357 169.883C175.319 165.416 191.115 125.251 190.424 123.943ZM244.764 132.101C242.775 128.988 240.156 127.333 236.252 126.72C230.322 125.789 224.239 131.228 224.07 137.613C223.902 143.99 228.96 149.282 235.143 149.194C244.092 149.068 249.485 139.486 244.764 132.101Z" fill="white"/>
</svg>
