<svg width="166" height="38" viewBox="0 0 166 38" fill="none" xmlns="http://www.w3.org/2000/svg">
<path d="M26.3371 32.6786V37.8584H0.856609V0.710216H25.8662V5.89003H6.7166V16.459H23.3025V21.3248H6.7166V32.6786H26.3371ZM38.2423 11.5931V37.8584H32.3823V0.710216H37.1959L58.229 27.5511V0.762537H64.1414V37.8584H59.0139L38.2423 11.5931ZM99.7514 5.89003H87.4035V37.8584H81.4912V5.89003H69.091V0.710216H99.7514V5.89003ZM130.213 32.6786V37.8584H104.733V0.710216H129.743V5.89003H110.593V16.459H127.179V21.3248H110.593V32.6786H130.213ZM136.259 37.8584V0.710216H152.426C154.1 0.710216 155.635 1.05903 157.03 1.75664C158.425 2.45426 159.629 3.37861 160.64 4.52968C161.687 5.68075 162.489 6.97134 163.047 8.40146C163.64 9.83158 163.937 11.2966 163.937 12.7965C163.937 14.4359 163.64 16.0055 163.047 17.5054C162.454 19.0053 161.6 20.2959 160.483 21.3772C159.402 22.4585 158.129 23.2433 156.664 23.7316L165.402 37.8584H158.809L150.752 24.935H142.119V37.8584H136.259ZM142.119 19.7552H152.374C153.455 19.7552 154.414 19.4413 155.251 18.8134C156.088 18.1856 156.751 17.3484 157.239 16.302C157.728 15.2207 157.972 14.0522 157.972 12.7965C157.972 11.5059 157.693 10.3548 157.135 9.34325C156.577 8.29682 155.844 7.45967 154.937 6.83182C154.065 6.20396 153.106 5.89003 152.06 5.89003H142.119V19.7552Z" fill="#2356F6"/>
</svg>
