<svg width="1438" height="343" viewBox="0 0 1438 343" fill="none" xmlns="http://www.w3.org/2000/svg">
<path d="M0.912598 25.638C29.1874 105.859 124.006 241.051 277.083 140.052C468.43 13.8022 545.363 -21.7055 659.777 25.638C774.19 72.9816 742.628 339.289 845.206 319.563C947.783 299.836 1012.88 136.106 1093.76 122.298C1174.64 108.489 1281.16 335.344 1344.29 254.465C1394.79 189.762 1427.14 124.928 1437 100.599" stroke="white" stroke-dasharray="16 16"/>
<circle cx="843.363" cy="320.605" r="21.9777" fill="white"/>
<circle cx="274.314" cy="137.79" r="21.9777" fill="white"/>
<path d="M273.851 127.059C273.875 125.929 274.263 125.07 275.017 124.482C275.793 123.893 276.723 123.599 277.806 123.599C278.771 123.599 279.489 123.811 279.959 124.234C280.454 124.635 280.689 125.223 280.665 126C280.642 126.988 280.242 127.8 279.465 128.436C278.712 129.071 277.782 129.389 276.676 129.389C275.758 129.389 275.052 129.189 274.558 128.789C274.063 128.365 273.828 127.788 273.851 127.059ZM272.439 135.779C272.816 134.697 272.698 134.155 272.086 134.155C271.71 134.155 271.357 134.343 271.027 134.72C270.698 135.097 270.344 135.744 269.968 136.662L269.226 138.639H268.556L269.544 135.92C269.874 135.003 270.286 134.285 270.78 133.767C271.298 133.225 271.886 132.849 272.545 132.637C273.204 132.402 273.899 132.284 274.628 132.284C275.499 132.284 276.182 132.437 276.676 132.743C277.17 133.049 277.523 133.449 277.735 133.943C277.947 134.414 278.041 134.944 278.017 135.532C277.994 136.097 277.888 136.662 277.7 137.227L273.993 148.065C273.804 148.677 273.757 149.101 273.851 149.336C273.969 149.572 274.169 149.69 274.452 149.69C274.711 149.69 275.017 149.537 275.37 149.231C275.723 148.925 276.099 148.242 276.499 147.183L277.17 145.347H277.841L276.958 147.924C276.605 148.889 276.17 149.642 275.652 150.184C275.134 150.702 274.558 151.055 273.922 151.243C273.287 151.455 272.663 151.561 272.051 151.561C271.015 151.561 270.203 151.337 269.615 150.89C269.026 150.443 268.685 149.784 268.591 148.913C268.497 148.042 268.662 146.971 269.085 145.7L272.439 135.779Z" fill="#3935FE"/>
<path d="M843.56 312.187V320.519H851.751V321.578H843.56V329.875H842.289V321.578H834.063V320.519H842.289V312.187H843.56Z" fill="#3935FE"/>
<path d="M843.56 312.187H845.56V310.187H843.56V312.187ZM843.56 320.519H841.56V322.519H843.56V320.519ZM851.751 320.519H853.751V318.519H851.751V320.519ZM851.751 321.578V323.578H853.751V321.578H851.751ZM843.56 321.578V319.578H841.56V321.578H843.56ZM843.56 329.875V331.875H845.56V329.875H843.56ZM842.289 329.875H840.289V331.875H842.289V329.875ZM842.289 321.578H844.289V319.578H842.289V321.578ZM834.063 321.578H832.063V323.578H834.063V321.578ZM834.063 320.519V318.519H832.063V320.519H834.063ZM842.289 320.519V322.519H844.289V320.519H842.289ZM842.289 312.187V310.187H840.289V312.187H842.289ZM841.56 312.187V320.519H845.56V312.187H841.56ZM843.56 322.519H851.751V318.519H843.56V322.519ZM849.751 320.519V321.578H853.751V320.519H849.751ZM851.751 319.578H843.56V323.578H851.751V319.578ZM841.56 321.578V329.875H845.56V321.578H841.56ZM843.56 327.875H842.289V331.875H843.56V327.875ZM844.289 329.875V321.578H840.289V329.875H844.289ZM842.289 319.578H834.063V323.578H842.289V319.578ZM836.063 321.578V320.519H832.063V321.578H836.063ZM834.063 322.519H842.289V318.519H834.063V322.519ZM844.289 320.519V312.187H840.289V320.519H844.289ZM842.289 314.187H843.56V310.187H842.289V314.187Z" fill="#3935FE"/>
<circle cx="640.176" cy="22.005" r="21.9777" fill="white"/>
<path d="M648.953 20.507C649.942 21.1911 649.954 22.6484 648.978 23.3495L637.595 31.5193C636.451 32.3411 634.855 31.531 634.843 30.1218L634.703 13.9808C634.691 12.5716 636.272 11.734 637.431 12.5358L648.953 20.507Z" fill="#3935FE"/>
<circle cx="1102.33" cy="129.089" r="21.9777" fill="white"/>
<path d="M1111.11 127.591C1112.1 128.275 1112.11 129.732 1111.13 130.434L1099.75 138.603C1098.61 139.425 1097.01 138.615 1097 137.206L1096.86 121.065C1096.85 119.656 1098.43 118.818 1099.59 119.62L1111.11 127.591Z" fill="#3935FE"/>
<circle cx="1309.25" cy="276.65" r="21.9777" fill="white"/>
<path fill-rule="evenodd" clip-rule="evenodd" d="M1312.14 316.067C1304.42 324.254 1304.42 324.254 1301.19 322.591C1298.69 321.307 1297.7 321.209 1296.81 322.16C1296.06 322.968 1296.03 323.39 1296.71 323.39C1297.28 323.39 1299.37 325.949 1301.37 329.077C1305.42 335.421 1306.14 335.843 1306.96 332.346C1307.71 329.101 1316.24 315.229 1319.41 312.095C1320.8 310.716 1321.94 309.204 1321.94 308.735C1321.94 306.52 1319.25 308.536 1312.14 316.067Z" fill="#3935FE"/>
</svg>
