<svg width="24" height="26" viewBox="0 0 24 26" fill="none" xmlns="http://www.w3.org/2000/svg">
<path d="M0.542969 8.75513C0.542969 4.63034 0.542969 2.56794 1.78776 1.28653C3.03256 0.00512695 5.03603 0.00512695 9.04297 0.00512695H14.7096C18.7166 0.00512695 20.72 0.00512695 21.9648 1.28653C23.2096 2.56794 23.2096 4.63034 23.2096 8.75513V18.7121C23.2096 22.6252 23.2096 24.5817 22.0136 25.1802C20.8175 25.7786 19.3229 24.5698 16.3339 22.1522L15.3773 21.3785C13.6966 20.0191 12.8562 19.3394 11.8763 19.3394C10.8964 19.3394 10.056 20.0191 8.37531 21.3785L7.41871 22.1522C4.42966 24.5698 2.93513 25.7786 1.73905 25.1802C0.542969 24.5817 0.542969 22.6252 0.542969 18.7121V8.75513Z" fill="white"/>
</svg>
